# xmcd
# 
# Track frame offsets:
#     150
#     17385
#     30420
#     48525
#     60233
#     76358
#     88563
#     100655
#     110830
#     121215
# 
# Disc length: 1792
# 
# Revision: 2
# Processed by: cddbd v1.5.2PL0 Copyright (c) Steve Scherf et al.
# Submitted via: fre:ac v1.0.31
# 
DISCID=6c06fe0a
DTITLE=JohnLeeHooker - Blues Before Sunrise
DYEAR=2002
DGENRE=Blues
TTITLE0=Blues Before Sunrise
TTITLE1=Hobo Blues
TTITLE2=Wednesday Evening Blues
TTITLE3=Little Wheel
TTITLE4=My First Wife Left Me
TTITLE5=I'm In The Mood
TTITLE6=Crawling King Snake
TTITLE7=Want Ad Blues
TTITLE8=Maudy
TTITLE9=Time Is Marching
EXTD=YEAR: 2002
EXTT0=
EXTT1=
EXTT2=
EXTT3=
EXTT4=
EXTT5=
EXTT6=
EXTT7=
EXTT8=
EXTT9=
PLAYORDER=
